<?xml version="1.0" standalone="no"?>
<!DOCTYPE svg PUBLIC "-//W3C//DTD SVG 20010904//EN"
 "http://www.w3.org/TR/2001/REC-SVG-20010904/DTD/svg10.dtd">
<svg version="1.0" xmlns="http://www.w3.org/2000/svg"
 width="76.000000pt" height="76.000000pt" viewBox="0 0 76.000000 76.000000"
 preserveAspectRatio="xMidYMid meet">
<metadata>
Created by potrace 1.14, written by Peter Selinger 2001-2017
</metadata>
<g transform="translate(0.000000,76.000000) scale(0.100000,-0.100000)"
fill="#000000" stroke="none">
<path d="M325 728 c-147 -180 -150 -187 -94 -207 l30 -10 -61 -75 c-37 -45
-60 -82 -58 -93 1 -10 17 -24 35 -32 l31 -14 -59 -68 c-49 -57 -57 -73 -50
-91 13 -38 62 -52 189 -57 21 -1 23 -5 17 -31 -8 -36 6 -44 75 -44 68 -1 81 7
70 43 -8 30 -7 31 23 32 18 1 37 1 43 0 14 -2 24 33 19 62 -4 18 2 15 29 -16
31 -33 37 -36 60 -27 54 20 47 62 -24 140 l-50 55 33 15 c17 8 33 23 35 32 2
11 -22 49 -57 91 -34 41 -61 76 -61 79 0 3 14 8 30 12 22 4 30 11 30 26 0 19
-101 155 -143 193 -30 26 -62 21 -92 -15z"/>
</g>
</svg>
